<svg width="152" height="56" viewBox="0 0 152 56" fill="none" xmlns="http://www.w3.org/2000/svg">
<path d="M9.46 20.86C9.79333 21.4333 9.96 21.9867 9.96 22.52C9.96 22.64 9.94667 22.7467 9.92 22.84C9.90667 22.9467 9.88667 23.0533 9.86 23.16C9.63333 23.1333 9.39333 23.1133 9.14 23.1C8.9 23.0867 8.64667 23.08 8.38 23.08C8.06 23.08 7.73333 23.0867 7.4 23.1C7.08 23.1267 6.72 23.16 6.32 23.2C5.92 23.24 5.47333 23.2933 4.98 23.36C4.48667 23.4267 3.91333 23.5133 3.26 23.62C2.95333 23.5133 2.64667 23.3 2.34 22.98C2.03333 22.6733 1.74667 22.3 1.48 21.86C1.61333 21.5667 1.78 21.2067 1.98 20.78C2.18 20.34 2.41333 19.8133 2.68 19.2C2.94667 18.5733 3.24 17.8467 3.56 17.02C3.89333 16.18 4.24667 15.2133 4.62 14.12C4.86 13.4 5.06667 12.7667 5.24 12.22C5.41333 11.6733 5.56667 11.1467 5.7 10.64C5.84667 10.12 5.98667 9.58 6.12 9.02C6.25333 8.46 6.4 7.81333 6.56 7.08C7.09333 7.18667 7.55333 7.38667 7.94 7.68C8.34 7.96 8.72 8.36667 9.08 8.9C8.97333 9.07333 8.83333 9.35333 8.66 9.74C8.48667 10.1267 8.28 10.6 8.04 11.16C7.81333 11.7067 7.56 12.3333 7.28 13.04C7 13.7333 6.70667 14.48 6.4 15.28C6.10667 16.0667 5.82 16.8067 5.54 17.5C5.26 18.1933 5.00667 18.82 4.78 19.38C4.56667 19.94 4.39333 20.42 4.26 20.82C4.12667 21.22 4.06 21.52 4.06 21.72C4.27333 21.7067 4.46667 21.6933 4.64 21.68C4.81333 21.6667 4.99333 21.6467 5.18 21.62C5.36667 21.58 5.56667 21.54 5.78 21.5C6.00667 21.4467 6.27333 21.38 6.58 21.3C6.84667 21.2333 7.09333 21.18 7.32 21.14C7.54667 21.0867 7.76667 21.0467 7.98 21.02C8.20667 20.98 8.43333 20.9533 8.66 20.94C8.9 20.9133 9.16667 20.8867 9.46 20.86ZM18.2016 13.72C18.1482 14.5467 18.0016 15.26 17.7616 15.86C17.5216 16.4467 17.1749 16.9667 16.7216 17.42C16.2816 17.86 15.7416 18.26 15.1016 18.62C14.4616 18.98 13.7149 19.3267 12.8616 19.66C12.8616 19.74 12.8549 19.8267 12.8416 19.92C12.8416 20 12.8416 20.0867 12.8416 20.18C12.8416 20.3533 12.8549 20.5333 12.8816 20.72C12.9082 20.9067 12.9549 21.08 13.0216 21.24C13.0882 21.4 13.1816 21.5333 13.3016 21.64C13.4216 21.7333 13.5749 21.78 13.7616 21.78C14.1216 21.78 14.4749 21.7 14.8216 21.54C15.1682 21.38 15.4949 21.1867 15.8016 20.96C16.1216 20.72 16.4149 20.4667 16.6816 20.2C16.9616 19.92 17.2082 19.6667 17.4216 19.44C17.5549 19.56 17.6682 19.6733 17.7616 19.78C17.1616 20.58 16.5016 21.2467 15.7816 21.78C15.0749 22.3 14.4016 22.6333 13.7616 22.78C12.8416 22.6733 12.1216 22.34 11.6016 21.78C11.0949 21.2067 10.8416 20.52 10.8416 19.72C10.8416 19.1733 10.9149 18.62 11.0616 18.06C11.2216 17.4867 11.4349 16.94 11.7016 16.42C11.9816 15.8867 12.3016 15.3867 12.6616 14.92C13.0349 14.4533 13.4282 14.0467 13.8416 13.7C14.2682 13.3533 14.7016 13.08 15.1416 12.88C15.5949 12.68 16.0416 12.58 16.4816 12.58C17.0949 12.66 17.6682 13.04 18.2016 13.72ZM16.8216 14.38C16.4616 14.4333 16.0882 14.58 15.7016 14.82C15.3149 15.06 14.9482 15.38 14.6016 15.78C14.2682 16.18 13.9616 16.6467 13.6816 17.18C13.4016 17.7133 13.1816 18.2867 13.0216 18.9C14.0882 18.3667 14.9749 17.7133 15.6816 16.94C16.3882 16.1533 16.7682 15.3 16.8216 14.38ZM26.0275 13.92C26.1608 13.92 26.3142 13.9467 26.4875 14C26.6742 14.04 26.8408 14.1 26.9875 14.18C27.1342 14.2467 27.2542 14.32 27.3475 14.4C27.4542 14.48 27.5075 14.5533 27.5075 14.62C27.2408 15.18 26.9942 15.7467 26.7675 16.32C26.5408 16.88 26.3475 17.42 26.1875 17.94C26.0275 18.46 25.9008 18.9467 25.8075 19.4C25.7275 19.8533 25.6875 20.2467 25.6875 20.58C25.6875 20.9533 25.7275 21.2667 25.8075 21.52C25.8875 21.76 26.0208 21.9333 26.2075 22.04C26.0475 22.1467 25.8408 22.2333 25.5875 22.3C25.3342 22.3667 25.1075 22.4 24.9075 22.4C24.1875 22.4 23.8275 21.9067 23.8275 20.92C23.8275 20.16 24.0808 19.12 24.5875 17.8C24.3208 18.4133 24.0142 18.9933 23.6675 19.54C23.3208 20.0733 22.9675 20.5467 22.6075 20.96C22.2475 21.3733 21.8808 21.7133 21.5075 21.98C21.1475 22.2333 20.8142 22.3867 20.5075 22.44C20.0142 22.4133 19.6142 22.18 19.3075 21.74C19.0008 21.2867 18.8475 20.7133 18.8475 20.02C18.8475 19.2733 19.0075 18.4867 19.3275 17.66C19.6475 16.8333 20.0542 16.0667 20.5475 15.36C21.0542 14.6533 21.6008 14.0667 22.1875 13.6C22.7742 13.12 23.3408 12.8667 23.8875 12.84C24.0208 12.88 24.1675 12.96 24.3275 13.08C24.5008 13.2 24.6608 13.34 24.8075 13.5C24.9675 13.66 25.1008 13.8267 25.2075 14C25.3142 14.16 25.3742 14.3 25.3875 14.42C24.8542 14.5 24.3008 14.76 23.7275 15.2C23.1675 15.64 22.6542 16.1733 22.1875 16.8C21.7342 17.4133 21.3608 18.0733 21.0675 18.78C20.7742 19.4867 20.6275 20.1467 20.6275 20.76C20.6275 21.0133 20.7208 21.1733 20.9075 21.24C21.2942 21.16 21.7408 20.8333 22.2475 20.26C22.7542 19.6733 23.3675 18.7733 24.0875 17.56C24.2208 17.32 24.3675 17.0533 24.5275 16.76C24.7008 16.4667 24.8742 16.16 25.0475 15.84C25.2208 15.52 25.3875 15.2 25.5475 14.88C25.7208 14.5467 25.8808 14.2267 26.0275 13.92ZM24.3648 27.96C24.3648 27.88 24.3915 27.8067 24.4448 27.74C24.4982 27.6733 24.5582 27.6067 24.6248 27.54C24.7848 27.6867 24.9248 27.8 25.0448 27.88C25.1515 27.96 25.2582 28.0267 25.3648 28.08C25.4582 28.1333 25.5582 28.1667 25.6648 28.18C25.7715 28.1933 25.8982 28.2 26.0448 28.2C26.7382 28.2 27.3982 28.0133 28.0248 27.64C28.6515 27.28 29.2382 26.7533 29.7848 26.06C30.3448 25.3667 30.8515 24.52 31.3048 23.52C31.7582 22.52 32.1582 21.3867 32.5048 20.12C32.3448 20.28 32.1448 20.46 31.9048 20.66C31.6782 20.8467 31.4382 21.0267 31.1848 21.2C30.9315 21.3733 30.6782 21.5333 30.4248 21.68C30.1848 21.8267 29.9782 21.9333 29.8048 22C29.5782 21.96 29.3648 21.8667 29.1648 21.72C28.9782 21.56 28.8115 21.3667 28.6648 21.14C28.5182 20.9133 28.4048 20.66 28.3248 20.38C28.2448 20.0867 28.2048 19.78 28.2048 19.46C28.2048 18.94 28.2982 18.4067 28.4848 17.86C28.6848 17.3133 28.9448 16.78 29.2648 16.26C29.5848 15.7267 29.9582 15.2267 30.3848 14.76C30.8248 14.2933 31.2848 13.8867 31.7648 13.54C32.2582 13.1933 32.7515 12.92 33.2448 12.72C33.7515 12.5067 34.2448 12.4 34.7248 12.4C35.1915 12.4 35.5382 12.5 35.7648 12.7C36.0048 12.8867 36.1782 13.2133 36.2848 13.68C36.1382 13.6 35.9515 13.56 35.7248 13.56C35.4048 13.56 35.0315 13.6867 34.6048 13.94C34.1915 14.1933 33.7648 14.5267 33.3248 14.94C32.8982 15.34 32.4715 15.8067 32.0448 16.34C31.6182 16.86 31.2382 17.3933 30.9048 17.94C30.5848 18.4867 30.3182 19.02 30.1048 19.54C29.9048 20.06 29.8048 20.5267 29.8048 20.94C29.8048 21.0333 29.8115 21.0933 29.8248 21.12C29.8382 21.1333 29.8582 21.14 29.8848 21.14C30.0048 21.14 30.1648 21.0733 30.3648 20.94C30.5782 20.8067 30.8115 20.64 31.0648 20.44C31.3315 20.2267 31.6048 19.9867 31.8848 19.72C32.1648 19.44 32.4315 19.16 32.6848 18.88C33.2582 18.24 33.7782 17.5267 34.2448 16.74C34.7248 15.94 35.1048 15.1667 35.3848 14.42C35.7448 14.4467 36.0648 14.5067 36.3448 14.6C36.6248 14.6933 36.8182 14.7933 36.9248 14.9C36.4715 15.94 36.1048 16.8133 35.8248 17.52C35.5582 18.2267 35.3248 18.8533 35.1248 19.4C34.7648 20.36 34.4248 21.2333 34.1048 22.02C33.7982 22.82 33.4782 23.5533 33.1448 24.22C32.8248 24.9 32.4715 25.5267 32.0848 26.1C31.7115 26.6867 31.2848 27.2467 30.8048 27.78C30.5782 28.0333 30.3182 28.2533 30.0248 28.44C29.7448 28.64 29.4515 28.8067 29.1448 28.94C28.8515 29.0733 28.5582 29.1733 28.2648 29.24C27.9848 29.3067 27.7248 29.34 27.4848 29.34C27.1648 29.34 26.8382 29.3 26.5048 29.22C26.1715 29.1533 25.8648 29.0533 25.5848 28.92C25.2915 28.8 25.0382 28.6533 24.8248 28.48C24.6115 28.32 24.4582 28.1467 24.3648 27.96ZM42.8488 21.56C42.5954 21.3467 42.4221 21.08 42.3288 20.76C42.2488 20.44 42.2088 20.1667 42.2088 19.94C42.2088 19.66 42.2421 19.42 42.3088 19.22C42.2554 19.22 42.1354 19.3267 41.9488 19.54C41.7621 19.7533 41.5554 20.0067 41.3288 20.3C41.1154 20.5933 40.9021 20.88 40.6888 21.16C40.4754 21.44 40.3154 21.6467 40.2088 21.78C40.0354 21.9667 39.8688 22.1133 39.7088 22.22C39.5621 22.3267 39.4421 22.3867 39.3488 22.4C39.1354 22.3867 38.9088 22.34 38.6688 22.26C38.4421 22.1933 38.2221 22.0933 38.0088 21.96C37.8088 21.8267 37.6288 21.6667 37.4688 21.48C37.3221 21.2933 37.2221 21.08 37.1688 20.84C37.1688 20.4667 37.1754 20.16 37.1888 19.92C37.2154 19.68 37.2621 19.42 37.3288 19.14C37.4488 18.6333 37.6221 18.06 37.8488 17.42C38.0888 16.78 38.3621 16.1533 38.6688 15.54C38.9754 14.9133 39.3154 14.3333 39.6888 13.8C40.0754 13.2533 40.4821 12.8267 40.9088 12.52C41.0288 12.52 41.1688 12.5333 41.3288 12.56C41.4888 12.5733 41.6488 12.6067 41.8088 12.66C41.9821 12.7133 42.1421 12.78 42.2888 12.86C42.4488 12.9267 42.5821 13.02 42.6888 13.14C42.5688 13.2733 42.2621 13.72 41.7688 14.48C41.2888 15.24 40.7488 16.3333 40.1488 17.76C40.0821 17.9067 40.0021 18.12 39.9088 18.4C39.8154 18.68 39.7221 18.9733 39.6288 19.28C39.5354 19.5867 39.4554 19.8867 39.3888 20.18C39.3354 20.4733 39.3088 20.7067 39.3088 20.88C39.3088 20.9867 39.3221 21.0667 39.3488 21.12C39.3888 21.1733 39.4221 21.2133 39.4488 21.24C39.6488 21.16 39.9021 20.94 40.2088 20.58C40.5154 20.22 40.9421 19.6667 41.4888 18.92C41.6221 18.7333 41.7754 18.52 41.9488 18.28C42.1354 18.04 42.3221 17.7867 42.5088 17.52C42.6954 17.24 42.8688 16.9533 43.0288 16.66C43.2021 16.3667 43.3421 16.0733 43.4488 15.78C43.5021 15.62 43.5688 15.4333 43.6488 15.22C43.7421 14.9933 43.8488 14.76 43.9688 14.52C44.1021 14.28 44.2488 14.04 44.4088 13.8C44.5821 13.5467 44.7821 13.3133 45.0088 13.1C45.1821 13.1 45.3688 13.12 45.5687 13.16C45.7688 13.2 45.9554 13.2533 46.1288 13.32C46.3154 13.3733 46.4754 13.44 46.6088 13.52C46.7421 13.5867 46.8421 13.66 46.9088 13.74C46.6688 14.3267 46.4021 14.9067 46.1088 15.48C45.8154 16.0533 45.5421 16.62 45.2888 17.18C45.0354 17.7267 44.8221 18.2733 44.6488 18.82C44.4754 19.3667 44.3888 19.9 44.3888 20.42C44.3888 20.7 44.4088 20.9467 44.4488 21.16C44.5021 21.36 44.5554 21.5333 44.6088 21.68C44.6621 21.8133 44.7088 21.9267 44.7488 22.02C44.8021 22.1133 44.8288 22.1933 44.8288 22.26C44.8288 22.2733 44.8154 22.2933 44.7888 22.32C44.7754 22.3333 44.7621 22.34 44.7488 22.34C44.6554 22.34 44.5354 22.32 44.3888 22.28C44.2421 22.24 44.0754 22.18 43.8888 22.1C43.7154 22.0333 43.5354 21.9533 43.3488 21.86C43.1754 21.7667 43.0088 21.6667 42.8488 21.56ZM54.3539 13.72C54.3006 14.5467 54.1539 15.26 53.9139 15.86C53.6739 16.4467 53.3272 16.9667 52.8739 17.42C52.4339 17.86 51.8939 18.26 51.2539 18.62C50.6139 18.98 49.8672 19.3267 49.0139 19.66C49.0139 19.74 49.0072 19.8267 48.9939 19.92C48.9939 20 48.9939 20.0867 48.9939 20.18C48.9939 20.3533 49.0072 20.5333 49.0339 20.72C49.0606 20.9067 49.1072 21.08 49.1739 21.24C49.2406 21.4 49.3339 21.5333 49.4539 21.64C49.5739 21.7333 49.7272 21.78 49.9139 21.78C50.2739 21.78 50.6272 21.7 50.9739 21.54C51.3206 21.38 51.6472 21.1867 51.9539 20.96C52.2739 20.72 52.5672 20.4667 52.8339 20.2C53.1139 19.92 53.3606 19.6667 53.5739 19.44C53.7072 19.56 53.8206 19.6733 53.9139 19.78C53.3139 20.58 52.6539 21.2467 51.9339 21.78C51.2272 22.3 50.5539 22.6333 49.9139 22.78C48.9939 22.6733 48.2739 22.34 47.7539 21.78C47.2472 21.2067 46.9939 20.52 46.9939 19.72C46.9939 19.1733 47.0672 18.62 47.2139 18.06C47.3739 17.4867 47.5872 16.94 47.8539 16.42C48.1339 15.8867 48.4539 15.3867 48.8139 14.92C49.1872 14.4533 49.5806 14.0467 49.9939 13.7C50.4206 13.3533 50.8539 13.08 51.2939 12.88C51.7472 12.68 52.1939 12.58 52.6339 12.58C53.2472 12.66 53.8206 13.04 54.3539 13.72ZM52.9739 14.38C52.6139 14.4333 52.2406 14.58 51.8539 14.82C51.4672 15.06 51.1006 15.38 50.7539 15.78C50.4206 16.18 50.1139 16.6467 49.8339 17.18C49.5539 17.7133 49.3339 18.2867 49.1739 18.9C50.2406 18.3667 51.1272 17.7133 51.8339 16.94C52.5406 16.1533 52.9206 15.3 52.9739 14.38ZM60.9455 18.08C60.9455 17.1467 61.0521 16.2333 61.2655 15.34C61.4921 14.4333 61.8055 13.58 62.2055 12.78C62.6055 11.9667 63.0788 11.2267 63.6255 10.56C64.1855 9.88 64.7921 9.29333 65.4455 8.8C66.1121 8.30667 66.8188 7.92667 67.5655 7.66C68.3121 7.38 69.0788 7.24 69.8655 7.24C70.7855 7.24 71.4988 7.43333 72.0055 7.82C72.5255 8.20667 72.7855 8.74667 72.7855 9.44C72.7855 9.70667 72.7455 9.98 72.6655 10.26C72.5988 10.54 72.4921 10.82 72.3455 11.1C72.2121 11.3667 72.0521 11.6267 71.8655 11.88C71.6788 12.1333 71.4721 12.3533 71.2455 12.54C70.8988 12.4867 70.5988 12.3333 70.3455 12.08C70.0921 11.8133 69.9321 11.5067 69.8655 11.16C70.3321 10.7733 70.6988 10.3733 70.9655 9.96C71.2455 9.53333 71.3855 9.14667 71.3855 8.8C71.3855 8.21333 71.0188 7.92 70.2855 7.92C69.9788 7.92 69.6588 7.98667 69.3255 8.12C69.0055 8.24 68.6788 8.41333 68.3455 8.64C68.0121 8.86667 67.6855 9.14 67.3655 9.46C67.0588 9.78 66.7721 10.1333 66.5055 10.52C64.6521 13.1867 63.7255 15.9133 63.7255 18.7C63.7255 19.6867 63.8788 20.48 64.1855 21.08C64.4921 21.68 64.8988 22.0333 65.4055 22.14C65.9788 22.0067 66.7055 21.64 67.5855 21.04C68.4655 20.44 69.4255 19.66 70.4655 18.7C70.5988 18.8333 70.6788 18.9733 70.7055 19.12C70.3188 19.6267 69.9188 20.1133 69.5055 20.58C69.0921 21.0467 68.6788 21.4733 68.2655 21.86C67.8655 22.2467 67.4655 22.5867 67.0655 22.88C66.6788 23.1733 66.3188 23.4 65.9855 23.56C64.3321 23.5333 63.0788 23.06 62.2255 22.14C61.3721 21.22 60.9455 19.8667 60.9455 18.08ZM72.0186 20.66C72.0186 20.54 72.0253 20.3933 72.0386 20.22C72.0653 20.0333 72.1053 19.7933 72.1586 19.5C72.2119 19.1933 72.2786 18.8267 72.3586 18.4C72.4519 17.9733 72.5653 17.46 72.6986 16.86C72.7253 16.7267 72.7853 16.5133 72.8786 16.22C72.9719 15.9267 73.0919 15.62 73.2386 15.3C73.3986 14.9667 73.5853 14.6467 73.7986 14.34C74.0253 14.0333 74.2919 13.8067 74.5986 13.66C74.8253 13.7133 75.1253 13.8533 75.4986 14.08C75.8719 14.2933 76.1919 14.5933 76.4586 14.98C76.1519 15.3267 75.8919 15.6733 75.6786 16.02C75.4786 16.3667 75.2919 16.7267 75.1186 17.1C74.9586 17.4733 74.8053 17.86 74.6586 18.26C74.5253 18.66 74.3719 19.08 74.1986 19.52C74.0519 19.8933 73.9186 20.28 73.7986 20.68C73.6786 21.0667 73.6119 21.4067 73.5986 21.7C73.5986 21.94 73.5919 22.1067 73.5786 22.2C73.5786 22.3067 73.5453 22.36 73.4786 22.36C73.4253 22.36 73.3186 22.3267 73.1586 22.26C72.9986 22.1933 72.8319 22.0933 72.6586 21.96C72.4986 21.8133 72.3519 21.6333 72.2186 21.42C72.0853 21.2067 72.0186 20.9533 72.0186 20.66ZM75.8386 11.98C75.8386 11.9 75.8586 11.78 75.8986 11.62C75.8319 11.5533 75.7719 11.4533 75.7186 11.32C75.6786 11.1867 75.6586 11.0667 75.6586 10.96C75.6586 10.84 75.6719 10.68 75.6986 10.48C75.7386 10.2667 75.7853 10.04 75.8386 9.8C75.8919 9.56 75.9586 9.31333 76.0386 9.06C76.1186 8.79333 76.1986 8.55333 76.2786 8.34C76.4386 8.34 76.6319 8.38667 76.8586 8.48C77.0986 8.56 77.3386 8.67333 77.5786 8.82C77.8186 8.95333 78.0386 9.10667 78.2386 9.28C78.4386 9.44 78.5919 9.59333 78.6986 9.74C78.5519 9.88667 78.3586 10.0933 78.1186 10.36C77.8786 10.6133 77.6453 10.8867 77.4186 11.18C77.1919 11.46 76.9853 11.7267 76.7986 11.98C76.6119 12.2333 76.4919 12.4133 76.4386 12.52C76.2786 12.4933 76.1386 12.4267 76.0186 12.32C75.8986 12.2 75.8386 12.0867 75.8386 11.98ZM77.7684 14.34C77.7018 14.26 77.6418 14.0933 77.5884 13.84C77.5351 13.5733 77.5084 13.3467 77.5084 13.16C77.8551 13.1867 78.1884 13.2133 78.5084 13.24C78.8284 13.2533 79.1218 13.2667 79.3884 13.28C79.5884 12.88 79.8018 12.4867 80.0284 12.1C80.2684 11.7 80.4951 11.34 80.7084 11.02C80.9351 10.6867 81.1418 10.4067 81.3284 10.18C81.5284 9.95333 81.6818 9.80667 81.7884 9.74C81.9218 9.74 82.0884 9.76667 82.2884 9.82C82.5018 9.86 82.7151 9.92 82.9284 10C83.1418 10.0667 83.3351 10.14 83.5084 10.22C83.6818 10.3 83.8018 10.38 83.8684 10.46C83.4684 10.9667 83.1218 11.44 82.8284 11.88C82.5484 12.3067 82.2418 12.8 81.9084 13.36C82.1751 13.36 82.4418 13.3533 82.7084 13.34C82.9884 13.3267 83.2684 13.3067 83.5484 13.28C83.6151 13.3467 83.6684 13.4333 83.7084 13.54C83.7484 13.6333 83.7684 13.7333 83.7684 13.84C83.1151 14.08 82.3218 14.2133 81.3884 14.24C81.0551 14.88 80.7551 15.52 80.4884 16.16C80.2351 16.7867 80.0151 17.3933 79.8284 17.98C79.6551 18.5667 79.5151 19.12 79.4084 19.64C79.3151 20.16 79.2684 20.6267 79.2684 21.04C79.2684 21.6267 79.4884 21.9533 79.9284 22.02C80.3284 21.9667 80.7084 21.8667 81.0684 21.72C81.4284 21.5733 81.7484 21.3867 82.0284 21.16C82.1084 21.28 82.1551 21.38 82.1684 21.46C82.0884 21.58 81.9484 21.72 81.7484 21.88C81.5618 22.04 81.3551 22.1933 81.1284 22.34C80.9018 22.5 80.6818 22.6333 80.4684 22.74C80.2551 22.8467 80.0951 22.9067 79.9884 22.92C79.6551 22.9067 79.3218 22.8333 78.9884 22.7C78.6551 22.5667 78.3484 22.4 78.0684 22.2C77.8018 22 77.5818 21.78 77.4084 21.54C77.2351 21.2867 77.1484 21.04 77.1484 20.8C77.1484 20.48 77.1884 20.08 77.2684 19.6C77.3618 19.1067 77.4884 18.5733 77.6484 18C77.8084 17.4267 77.9951 16.8267 78.2084 16.2C78.4218 15.5733 78.6551 14.9533 78.9084 14.34H77.7684ZM91.1397 18.9C90.833 19.8733 90.5264 20.76 90.2197 21.56C89.913 22.36 89.5864 23.0933 89.2397 23.76C88.893 24.44 88.5197 25.06 88.1197 25.62C87.7197 26.1933 87.2797 26.7333 86.7997 27.24C86.1864 27.88 85.553 28.3667 84.8997 28.7C84.2464 29.0467 83.593 29.22 82.9397 29.22C82.6064 29.22 82.273 29.18 81.9397 29.1C81.6197 29.0333 81.3197 28.9333 81.0397 28.8C80.7464 28.68 80.493 28.5333 80.2797 28.36C80.053 28.2 79.893 28.0267 79.7997 27.84C79.7997 27.68 79.893 27.54 80.0797 27.42C80.2397 27.5667 80.373 27.68 80.4797 27.76C80.5864 27.84 80.693 27.9067 80.7997 27.96C80.893 28.0133 80.9997 28.0467 81.1197 28.06C81.2264 28.0733 81.353 28.08 81.4997 28.08C82.2597 28.08 82.9997 27.8533 83.7197 27.4C84.453 26.96 85.1397 26.3267 85.7797 25.5C86.433 24.6867 87.0264 23.6933 87.5597 22.52C88.093 21.36 88.5464 20.06 88.9197 18.62C88.7464 18.8867 88.533 19.2133 88.2797 19.6C88.0264 19.9867 87.7464 20.3733 87.4397 20.76C87.133 21.1333 86.813 21.4733 86.4797 21.78C86.1597 22.0867 85.8464 22.2933 85.5397 22.4C85.3264 22.3867 85.0997 22.34 84.8597 22.26C84.633 22.1933 84.413 22.0933 84.1997 21.96C83.9997 21.8267 83.8197 21.6667 83.6597 21.48C83.4997 21.2933 83.393 21.08 83.3397 20.84C83.3397 20.4533 83.353 20.1467 83.3797 19.92C83.4064 19.68 83.453 19.42 83.5197 19.14C83.6397 18.6333 83.813 18.06 84.0397 17.42C84.2797 16.78 84.553 16.1533 84.8597 15.54C85.1797 14.9133 85.5264 14.3333 85.8997 13.8C86.2864 13.2533 86.6864 12.8267 87.0997 12.52C87.2064 12.52 87.3397 12.5333 87.4997 12.56C87.6597 12.5733 87.8264 12.6067 87.9997 12.66C88.173 12.7133 88.3397 12.78 88.4997 12.86C88.6597 12.9267 88.7997 13.02 88.9197 13.14C88.773 13.2733 88.453 13.72 87.9597 14.48C87.4664 15.24 86.9197 16.3333 86.3197 17.76C86.253 17.9067 86.173 18.12 86.0797 18.4C85.9864 18.68 85.893 18.9733 85.7997 19.28C85.7197 19.5867 85.6464 19.8867 85.5797 20.18C85.513 20.4733 85.4797 20.7067 85.4797 20.88C85.4797 20.9867 85.493 21.0667 85.5197 21.12C85.5597 21.1733 85.593 21.2133 85.6197 21.24C85.8597 21.2 86.1797 21.0067 86.5797 20.66C86.9797 20.3 87.433 19.7467 87.9397 19C88.2597 18.52 88.553 18.0467 88.8197 17.58C89.0864 17.1 89.3464 16.62 89.5997 16.14C89.8664 15.66 90.1397 15.1667 90.4197 14.66C90.6997 14.1533 90.9997 13.6333 91.3197 13.1C91.493 13.1 91.6797 13.12 91.8797 13.16C92.0797 13.2 92.273 13.2533 92.4597 13.32C92.6464 13.3733 92.8064 13.44 92.9397 13.52C93.0864 13.5867 93.193 13.66 93.2597 13.74C92.8464 14.62 92.4597 15.48 92.0997 16.32C91.7397 17.16 91.4197 18.02 91.1397 18.9Z" fill="black"/>
<path d="M47.96 33.776C47.96 34.768 47.688 35.656 47.144 36.44C46.6 37.208 45.856 37.848 44.912 38.36C45.52 38.776 46 39.288 46.352 39.896C46.72 40.488 46.904 41.144 46.904 41.864C46.904 42.728 46.64 43.584 46.112 44.432C45.6 45.264 44.912 46.008 44.048 46.664C43.184 47.304 42.2 47.824 41.096 48.224C39.992 48.624 38.864 48.824 37.712 48.824C36.464 48.824 35.368 48.584 34.424 48.104C33.496 47.64 32.768 46.976 32.24 46.112C32.4 45.632 32.608 45.04 32.864 44.336C33.136 43.616 33.432 42.864 33.752 42.08C34.072 41.28 34.392 40.488 34.712 39.704C35.048 38.92 35.36 38.216 35.648 37.592C36.256 36.232 36.8 35.104 37.28 34.208C37.76 33.312 38.2 32.6 38.6 32.072C37.72 32.344 36.92 32.656 36.2 33.008C35.48 33.344 34.952 33.672 34.616 33.992C34.472 33.896 34.32 33.752 34.16 33.56C34.016 33.368 33.872 33.16 33.728 32.936C33.6 32.696 33.488 32.456 33.392 32.216C33.312 31.976 33.264 31.76 33.248 31.568C33.664 31.28 34.2 31.008 34.856 30.752C35.528 30.48 36.256 30.248 37.04 30.056C37.824 29.864 38.624 29.712 39.44 29.6C40.272 29.488 41.064 29.432 41.816 29.432C43.736 29.432 45.24 29.816 46.328 30.584C47.416 31.352 47.96 32.416 47.96 33.776ZM38.816 39.512C38.512 39.368 38.232 39.152 37.976 38.864C37.608 39.68 37.256 40.48 36.92 41.264C36.6 42.048 36.312 42.776 36.056 43.448C35.8 44.12 35.592 44.704 35.432 45.2C35.272 45.696 35.184 46.056 35.168 46.28C35.392 46.408 35.656 46.504 35.96 46.568C36.28 46.632 36.672 46.664 37.136 46.664C38.224 46.664 39.264 46.512 40.256 46.208C41.248 45.904 42.12 45.496 42.872 44.984C43.624 44.456 44.224 43.856 44.672 43.184C45.12 42.512 45.344 41.808 45.344 41.072C45.344 40.016 44.888 39.256 43.976 38.792C42.728 39.304 41.32 39.56 39.752 39.56C39.528 39.56 39.352 39.56 39.224 39.56C39.112 39.56 38.976 39.544 38.816 39.512ZM43.472 31.184C43.136 31.184 42.776 31.208 42.392 31.256C42.024 31.288 41.632 31.344 41.216 31.424C41.28 31.488 41.328 31.56 41.36 31.64C41.408 31.704 41.448 31.776 41.48 31.856C41.336 32.048 41.16 32.328 40.952 32.696C40.744 33.064 40.512 33.496 40.256 33.992C40 34.472 39.728 35.008 39.44 35.6C39.168 36.192 38.888 36.8 38.6 37.424C38.872 37.36 39.2 37.312 39.584 37.28C39.984 37.232 40.376 37.208 40.76 37.208C40.968 37.208 41.168 37.216 41.36 37.232C41.568 37.248 41.768 37.272 41.96 37.304C42.728 37.176 43.416 36.992 44.024 36.752C44.648 36.496 45.184 36.208 45.632 35.888C46.08 35.552 46.424 35.184 46.664 34.784C46.904 34.384 47.024 33.96 47.024 33.512C47.024 32.744 46.72 32.168 46.112 31.784C45.504 31.384 44.624 31.184 43.472 31.184ZM51.2928 47.84C50.3808 47.744 49.6528 47.344 49.1088 46.64C48.5648 45.936 48.2928 45.04 48.2928 43.952C48.2928 43.312 48.3888 42.648 48.5808 41.96C48.7728 41.272 49.0448 40.608 49.3968 39.968C49.7488 39.312 50.1648 38.696 50.6448 38.12C51.1248 37.544 51.6448 37.048 52.2048 36.632C53.0848 35.976 53.9088 35.648 54.6768 35.648C55.1888 35.92 55.6928 36.488 56.1888 37.352C56.2688 37.352 56.3408 37.352 56.4048 37.352C56.4688 37.336 56.5408 37.328 56.6208 37.328C57.4688 37.328 57.8928 38.08 57.8928 39.584C57.8928 40.592 57.7248 41.552 57.3888 42.464C57.0688 43.36 56.6128 44.176 56.0208 44.912C55.4448 45.648 54.7488 46.272 53.9328 46.784C53.1328 47.28 52.2528 47.632 51.2928 47.84ZM52.5168 40.28C52.2448 40.648 51.9888 41.048 51.7488 41.48C51.5088 41.912 51.3008 42.352 51.1248 42.8C50.9488 43.232 50.8128 43.656 50.7168 44.072C50.6208 44.472 50.5728 44.832 50.5728 45.152C50.5728 45.536 50.6368 45.904 50.7648 46.256C50.8928 46.608 51.0368 46.808 51.1968 46.856C51.9168 46.696 52.5728 46.4 53.1648 45.968C53.7728 45.52 54.2928 44.968 54.7248 44.312C55.1728 43.656 55.5168 42.912 55.7568 42.08C56.0128 41.248 56.1408 40.36 56.1408 39.416C56.1408 39 56.1168 38.672 56.0688 38.432C56.0208 38.192 55.9408 37.984 55.8288 37.808C55.1248 38.016 54.4928 38.352 53.9328 38.816C53.3888 39.28 52.9168 39.768 52.5168 40.28ZM64.2866 35.792C64.6066 35.792 64.9746 35.888 65.3906 36.08C65.8066 36.272 66.1746 36.52 66.4946 36.824C66.4146 36.184 66.3106 35.584 66.1826 35.024C66.0706 34.448 65.8946 33.856 65.6546 33.248C65.4306 32.64 65.1266 31.976 64.7426 31.256C64.3586 30.536 63.8786 29.712 63.3026 28.784C63.3506 28.64 63.4546 28.472 63.6146 28.28C63.7906 28.088 63.9826 27.912 64.1906 27.752C64.4146 27.576 64.6386 27.424 64.8626 27.296C65.1026 27.168 65.3266 27.088 65.5346 27.056C65.9826 27.552 66.4066 28.176 66.8066 28.928C67.2066 29.664 67.5586 30.464 67.8626 31.328C68.1666 32.176 68.3986 33.056 68.5586 33.968C68.7346 34.88 68.8226 35.752 68.8226 36.584C68.8226 37.416 68.7266 38.272 68.5346 39.152C68.3586 40.032 68.1026 40.896 67.7666 41.744C67.4466 42.576 67.0706 43.368 66.6386 44.12C66.2066 44.872 65.7346 45.544 65.2226 46.136C64.7266 46.728 64.2066 47.208 63.6626 47.576C63.1186 47.96 62.5746 48.2 62.0306 48.296C60.9266 48.168 60.0786 47.808 59.4866 47.216C58.9106 46.64 58.6226 45.84 58.6226 44.816C58.6226 44.272 58.7026 43.68 58.8626 43.04C59.0386 42.4 59.2626 41.768 59.5346 41.144C59.8226 40.504 60.1506 39.888 60.5186 39.296C60.9026 38.688 61.3026 38.144 61.7186 37.664C62.1506 37.184 62.5826 36.776 63.0146 36.44C63.4466 36.104 63.8706 35.888 64.2866 35.792ZM61.8386 47.336C62.3986 47.144 62.9586 46.72 63.5186 46.064C64.0786 45.408 64.5826 44.64 65.0306 43.76C65.4786 42.864 65.8386 41.912 66.1106 40.904C66.3986 39.88 66.5426 38.896 66.5426 37.952C66.5426 37.68 66.5426 37.512 66.5426 37.448C66.5426 37.384 66.5346 37.32 66.5186 37.256C66.1346 37.416 65.7266 37.688 65.2946 38.072C64.8626 38.456 64.4306 38.904 63.9986 39.416C63.5666 39.912 63.1586 40.456 62.7746 41.048C62.3906 41.64 62.0466 42.232 61.7426 42.824C61.4386 43.416 61.1986 43.984 61.0226 44.528C60.8466 45.072 60.7586 45.552 60.7586 45.968C60.7586 46.768 61.1186 47.224 61.8386 47.336ZM78.4614 43.28C78.0934 44.448 77.7254 45.512 77.3574 46.472C76.9894 47.432 76.5974 48.312 76.1814 49.112C75.7654 49.928 75.3174 50.672 74.8374 51.344C74.3574 52.032 73.8294 52.68 73.2534 53.288C72.5174 54.056 71.7574 54.64 70.9734 55.04C70.1894 55.456 69.4054 55.664 68.6214 55.664C68.2214 55.664 67.8214 55.616 67.4214 55.52C67.0374 55.44 66.6774 55.32 66.3414 55.16C65.9894 55.016 65.6854 54.84 65.4294 54.632C65.1574 54.44 64.9654 54.232 64.8534 54.008C64.8534 53.816 64.9654 53.648 65.1894 53.504C65.3814 53.68 65.5414 53.816 65.6694 53.912C65.7974 54.008 65.9254 54.088 66.0534 54.152C66.1654 54.216 66.2934 54.256 66.4374 54.272C66.5654 54.288 66.7174 54.296 66.8934 54.296C67.8054 54.296 68.6934 54.024 69.5574 53.48C70.4374 52.952 71.2614 52.192 72.0294 51.2C72.8134 50.224 73.5254 49.032 74.1654 47.624C74.8054 46.232 75.3494 44.672 75.7974 42.944C75.5894 43.264 75.3334 43.656 75.0294 44.12C74.7254 44.584 74.3894 45.048 74.0214 45.512C73.6534 45.96 73.2694 46.368 72.8694 46.736C72.4854 47.104 72.1094 47.352 71.7414 47.48C71.4854 47.464 71.2134 47.408 70.9254 47.312C70.6534 47.232 70.3894 47.112 70.1334 46.952C69.8934 46.792 69.6774 46.6 69.4854 46.376C69.2934 46.152 69.1654 45.896 69.1014 45.608C69.1014 45.144 69.1174 44.776 69.1494 44.504C69.1814 44.216 69.2374 43.904 69.3174 43.568C69.4614 42.96 69.6694 42.272 69.9414 41.504C70.2294 40.736 70.5574 39.984 70.9254 39.248C71.3094 38.496 71.7254 37.8 72.1734 37.16C72.6374 36.504 73.1174 35.992 73.6134 35.624C73.7414 35.624 73.9014 35.64 74.0934 35.672C74.2854 35.688 74.4854 35.728 74.6934 35.792C74.9014 35.856 75.1014 35.936 75.2934 36.032C75.4854 36.112 75.6534 36.224 75.7974 36.368C75.6214 36.528 75.2374 37.064 74.6454 37.976C74.0534 38.888 73.3974 40.2 72.6774 41.912C72.5974 42.088 72.5014 42.344 72.3894 42.68C72.2774 43.016 72.1654 43.368 72.0534 43.736C71.9574 44.104 71.8694 44.464 71.7894 44.816C71.7094 45.168 71.6694 45.448 71.6694 45.656C71.6694 45.784 71.6854 45.88 71.7174 45.944C71.7654 46.008 71.8054 46.056 71.8374 46.088C72.1254 46.04 72.5094 45.808 72.9894 45.392C73.4694 44.96 74.0134 44.296 74.6214 43.4C75.0054 42.824 75.3574 42.256 75.6774 41.696C75.9974 41.12 76.3094 40.544 76.6134 39.968C76.9334 39.392 77.2614 38.8 77.5974 38.192C77.9334 37.584 78.2934 36.96 78.6774 36.32C78.8854 36.32 79.1094 36.344 79.3494 36.392C79.5894 36.44 79.8214 36.504 80.0454 36.584C80.2694 36.648 80.4614 36.728 80.6214 36.824C80.7974 36.904 80.9254 36.992 81.0054 37.088C80.5094 38.144 80.0454 39.176 79.6134 40.184C79.1814 41.192 78.7974 42.224 78.4614 43.28ZM102.642 30.824C102.69 31.096 102.722 31.288 102.738 31.4C102.77 31.496 102.786 31.632 102.786 31.808C102.786 32.336 102.666 32.832 102.426 33.296C102.202 33.744 101.89 34.064 101.49 34.256C101.17 33.824 100.778 33.456 100.314 33.152C99.8503 32.832 99.3383 32.576 98.7783 32.384C98.2343 32.176 97.6663 32.024 97.0743 31.928C96.4823 31.832 95.9063 31.784 95.3463 31.784C94.7863 31.784 94.2583 31.832 93.7623 31.928C93.2823 32.008 92.8503 32.128 92.4663 32.288C92.0983 32.432 91.8023 32.616 91.5783 32.84C91.3703 33.064 91.2663 33.32 91.2663 33.608C91.3143 33.96 91.5303 34.32 91.9143 34.688C92.2983 35.04 92.7703 35.392 93.3303 35.744C93.8903 36.08 94.5063 36.416 95.1783 36.752C95.8663 37.088 96.5383 37.408 97.1943 37.712C98.0103 38.096 98.7143 38.456 99.3063 38.792C99.8983 39.112 100.386 39.472 100.77 39.872C101.154 40.256 101.442 40.696 101.634 41.192C101.826 41.688 101.922 42.288 101.922 42.992C101.922 43.808 101.786 44.576 101.514 45.296C101.242 46 100.842 46.616 100.314 47.144C99.8023 47.672 99.1783 48.08 98.4423 48.368C97.7063 48.672 96.8823 48.824 95.9703 48.824C95.0743 48.824 94.1063 48.688 93.0663 48.416C92.0263 48.144 91.0503 47.768 90.1383 47.288C89.2423 46.824 88.4903 46.288 87.8823 45.68C87.2903 45.056 86.9943 44.4 86.9943 43.712C86.9943 43.392 87.0823 42.984 87.2583 42.488C87.4503 41.992 87.7863 41.472 88.2663 40.928C88.3143 41.408 88.5703 41.976 89.0343 42.632C89.5143 43.288 90.2263 43.896 91.1703 44.456C92.0503 44.968 92.9543 45.344 93.8823 45.584C94.8263 45.808 95.7063 45.92 96.5223 45.92C97.4183 45.92 98.1463 45.808 98.7063 45.584C99.2663 45.36 99.7063 45.096 100.026 44.792C100.346 44.472 100.57 44.152 100.698 43.832C100.826 43.512 100.898 43.256 100.914 43.064C100.898 42.744 100.746 42.44 100.458 42.152C100.186 41.848 99.8103 41.56 99.3303 41.288C98.8663 41 98.3223 40.712 97.6983 40.424C97.0743 40.136 96.4263 39.848 95.7543 39.56C94.7463 39.112 93.8743 38.696 93.1383 38.312C92.4183 37.912 91.8183 37.512 91.3383 37.112C90.8743 36.696 90.5303 36.264 90.3063 35.816C90.0983 35.368 89.9943 34.856 89.9943 34.28C89.9943 33.384 90.2663 32.536 90.8103 31.736C91.3543 30.936 92.1383 30.328 93.1623 29.912C93.6743 29.688 94.2183 29.528 94.7943 29.432C95.3863 29.336 95.9623 29.288 96.5223 29.288C97.5783 29.288 98.6103 29.432 99.6183 29.72C100.626 30.008 101.634 30.376 102.642 30.824ZM103.66 42.776C103.66 41.864 103.844 40.984 104.212 40.136C104.596 39.272 105.092 38.512 105.7 37.856C106.324 37.184 107.028 36.648 107.812 36.248C108.612 35.832 109.436 35.624 110.284 35.624C111.116 35.624 111.756 35.832 112.204 36.248C112.652 36.664 112.876 37.256 112.876 38.024C112.876 38.392 112.82 38.752 112.708 39.104C112.612 39.44 112.476 39.744 112.3 40.016C112.14 40.288 111.948 40.512 111.724 40.688C111.5 40.848 111.276 40.928 111.052 40.928C110.86 40.928 110.66 40.872 110.452 40.76C110.26 40.632 110.1 40.472 109.972 40.28C111.044 39.304 111.58 38.416 111.58 37.616C111.58 37.152 111.396 36.92 111.028 36.92C110.708 36.92 110.308 37.072 109.828 37.376C109.348 37.68 108.884 38.08 108.436 38.576C107.748 39.344 107.22 40.2 106.852 41.144C106.5 42.072 106.324 43.048 106.324 44.072C106.324 45.368 106.612 46.144 107.188 46.4C107.428 46.368 107.708 46.296 108.028 46.184C108.348 46.072 108.692 45.928 109.06 45.752C109.428 45.56 109.804 45.344 110.188 45.104C110.588 44.864 110.972 44.608 111.34 44.336C111.404 44.384 111.46 44.456 111.508 44.552C111.556 44.648 111.58 44.736 111.58 44.816C111.308 45.152 110.996 45.48 110.644 45.8C110.292 46.12 109.924 46.416 109.54 46.688C109.156 46.944 108.78 47.16 108.412 47.336C108.06 47.528 107.748 47.648 107.476 47.696C106.948 47.648 106.452 47.48 105.988 47.192C105.524 46.92 105.116 46.56 104.764 46.112C104.428 45.664 104.156 45.152 103.948 44.576C103.756 44 103.66 43.4 103.66 42.776ZM120.122 46.472C119.818 46.216 119.61 45.896 119.498 45.512C119.402 45.128 119.354 44.8 119.354 44.528C119.354 44.192 119.394 43.904 119.474 43.664C119.41 43.664 119.266 43.792 119.042 44.048C118.818 44.304 118.57 44.608 118.298 44.96C118.042 45.312 117.786 45.656 117.53 45.992C117.274 46.328 117.082 46.576 116.954 46.736C116.746 46.96 116.546 47.136 116.354 47.264C116.178 47.392 116.034 47.464 115.922 47.48C115.666 47.464 115.394 47.408 115.106 47.312C114.834 47.232 114.57 47.112 114.314 46.952C114.074 46.792 113.858 46.6 113.666 46.376C113.49 46.152 113.37 45.896 113.306 45.608C113.306 45.16 113.314 44.792 113.33 44.504C113.362 44.216 113.418 43.904 113.498 43.568C113.642 42.96 113.85 42.272 114.122 41.504C114.41 40.736 114.738 39.984 115.106 39.248C115.474 38.496 115.882 37.8 116.33 37.16C116.794 36.504 117.282 35.992 117.794 35.624C117.938 35.624 118.106 35.64 118.298 35.672C118.49 35.688 118.682 35.728 118.874 35.792C119.082 35.856 119.274 35.936 119.45 36.032C119.642 36.112 119.802 36.224 119.93 36.368C119.786 36.528 119.418 37.064 118.826 37.976C118.25 38.888 117.602 40.2 116.882 41.912C116.802 42.088 116.706 42.344 116.594 42.68C116.482 43.016 116.37 43.368 116.258 43.736C116.146 44.104 116.05 44.464 115.97 44.816C115.906 45.168 115.874 45.448 115.874 45.656C115.874 45.784 115.89 45.88 115.922 45.944C115.97 46.008 116.01 46.056 116.042 46.088C116.282 45.992 116.586 45.728 116.954 45.296C117.322 44.864 117.834 44.2 118.49 43.304C118.65 43.08 118.834 42.824 119.042 42.536C119.266 42.248 119.49 41.944 119.714 41.624C119.938 41.288 120.146 40.944 120.338 40.592C120.546 40.24 120.714 39.888 120.842 39.536C120.906 39.344 120.986 39.12 121.082 38.864C121.194 38.592 121.322 38.312 121.466 38.024C121.626 37.736 121.802 37.448 121.994 37.16C122.202 36.856 122.442 36.576 122.714 36.32C122.922 36.32 123.146 36.344 123.386 36.392C123.626 36.44 123.85 36.504 124.058 36.584C124.282 36.648 124.474 36.728 124.634 36.824C124.794 36.904 124.914 36.992 124.994 37.088C124.706 37.792 124.386 38.488 124.034 39.176C123.682 39.864 123.354 40.544 123.05 41.216C122.746 41.872 122.49 42.528 122.282 43.184C122.074 43.84 121.97 44.48 121.97 45.104C121.97 45.44 121.994 45.736 122.042 45.992C122.106 46.232 122.17 46.44 122.234 46.616C122.298 46.776 122.354 46.912 122.402 47.024C122.466 47.136 122.498 47.232 122.498 47.312C122.498 47.328 122.482 47.352 122.45 47.384C122.434 47.4 122.418 47.408 122.402 47.408C122.29 47.408 122.146 47.384 121.97 47.336C121.794 47.288 121.594 47.216 121.37 47.12C121.162 47.04 120.946 46.944 120.722 46.832C120.514 46.72 120.314 46.6 120.122 46.472ZM125.429 45.464C125.429 44.76 125.597 43.776 125.933 42.512C126.269 41.232 126.741 39.744 127.349 38.048C128.341 35.344 129.269 33.096 130.133 31.304C131.013 29.496 131.869 28.088 132.701 27.08C132.893 27.112 133.125 27.192 133.397 27.32C133.685 27.448 133.965 27.592 134.237 27.752C134.509 27.896 134.749 28.048 134.957 28.208C135.181 28.368 135.325 28.496 135.389 28.592C134.141 30.064 133.045 31.648 132.101 33.344C131.157 35.04 130.293 36.984 129.509 39.176C128.837 41.064 128.325 42.768 127.973 44.288C127.621 45.792 127.445 47.048 127.445 48.056C127.445 48.328 127.445 48.496 127.445 48.56C127.445 48.624 127.453 48.688 127.469 48.752C127.245 48.72 127.053 48.664 126.893 48.584C126.733 48.504 126.629 48.408 126.581 48.296C126.549 48.216 126.461 48.096 126.317 47.936C126.173 47.792 126.045 47.68 125.933 47.6C125.789 47.504 125.669 47.256 125.573 46.856C125.477 46.44 125.429 45.976 125.429 45.464ZM129.373 54.944C129.149 54.88 129.021 54.64 128.989 54.224C128.925 54.016 128.877 53.768 128.845 53.48C128.829 53.192 128.821 52.864 128.821 52.496C128.821 52.16 128.877 51.696 128.989 51.104C129.101 50.528 129.253 49.872 129.445 49.136C129.653 48.4 129.901 47.608 130.189 46.76C130.477 45.896 130.797 45.024 131.149 44.144C131.581 43.04 131.957 42.088 132.277 41.288C132.597 40.472 132.861 39.768 133.069 39.176C133.293 38.584 133.469 38.096 133.597 37.712C133.741 37.328 133.853 37 133.933 36.728C133.997 36.536 134.093 36.304 134.221 36.032C134.349 35.76 134.493 35.488 134.653 35.216C134.829 34.928 135.005 34.664 135.181 34.424C135.357 34.168 135.517 33.976 135.661 33.848C136.221 33.928 136.749 34.072 137.245 34.28C137.741 34.488 138.045 34.688 138.157 34.88C137.933 35.088 137.677 35.416 137.389 35.864C137.101 36.296 136.821 36.776 136.549 37.304C136.277 37.816 136.029 38.344 135.805 38.888C135.581 39.432 135.413 39.912 135.301 40.328C135.461 40.056 135.669 39.76 135.925 39.44C136.181 39.12 136.573 38.68 137.101 38.12C137.693 37.512 138.245 37.048 138.757 36.728C139.285 36.392 139.741 36.224 140.125 36.224C140.733 36.224 141.229 36.392 141.613 36.728C142.013 37.064 142.213 37.496 142.213 38.024C142.213 39.176 142.021 40.32 141.637 41.456C141.253 42.576 140.701 43.592 139.981 44.504C139.709 44.856 139.389 45.192 139.021 45.512C138.653 45.832 138.269 46.12 137.869 46.376C137.469 46.616 137.077 46.808 136.693 46.952C136.309 47.096 135.965 47.168 135.661 47.168C135.373 47.168 135.117 47.112 134.893 47C134.685 46.872 134.541 46.72 134.461 46.544C135.085 46.176 135.693 45.664 136.285 45.008C136.877 44.352 137.421 43.6 137.917 42.752C138.429 41.888 138.869 40.96 139.237 39.968C139.621 38.976 139.909 37.968 140.101 36.944C139.493 37.264 138.941 37.616 138.445 38C137.965 38.368 137.485 38.856 137.005 39.464C136.429 40.168 135.973 40.736 135.637 41.168C135.301 41.6 135.021 41.968 134.797 42.272C134.589 42.576 134.413 42.864 134.269 43.136C134.141 43.392 133.997 43.712 133.837 44.096C133.613 44.608 133.349 45.288 133.045 46.136C132.757 46.968 132.453 47.904 132.133 48.944C131.829 49.984 131.517 51.088 131.197 52.256C130.893 53.44 130.597 54.616 130.309 55.784C130.133 55.752 129.981 55.624 129.853 55.4C129.725 55.256 129.629 55.152 129.565 55.088C129.517 55.024 129.453 54.976 129.373 54.944ZM144.353 37.808C144.273 37.712 144.201 37.512 144.137 37.208C144.073 36.888 144.041 36.616 144.041 36.392C144.457 36.424 144.857 36.456 145.241 36.488C145.625 36.504 145.977 36.52 146.297 36.536C146.537 36.056 146.793 35.584 147.065 35.12C147.353 34.64 147.625 34.208 147.881 33.824C148.153 33.424 148.401 33.088 148.625 32.816C148.865 32.544 149.049 32.368 149.177 32.288C149.337 32.288 149.537 32.32 149.777 32.384C150.033 32.432 150.289 32.504 150.545 32.6C150.801 32.68 151.033 32.768 151.241 32.864C151.449 32.96 151.593 33.056 151.673 33.152C151.193 33.76 150.777 34.328 150.425 34.856C150.089 35.368 149.721 35.96 149.321 36.632C149.641 36.632 149.961 36.624 150.281 36.608C150.617 36.592 150.953 36.568 151.289 36.536C151.369 36.616 151.433 36.72 151.481 36.848C151.529 36.96 151.553 37.08 151.553 37.208C150.769 37.496 149.817 37.656 148.697 37.688C148.297 38.456 147.937 39.224 147.617 39.992C147.313 40.744 147.049 41.472 146.825 42.176C146.617 42.88 146.449 43.544 146.321 44.168C146.209 44.792 146.153 45.352 146.153 45.848C146.153 46.552 146.417 46.944 146.945 47.024C147.425 46.96 147.881 46.84 148.313 46.664C148.745 46.488 149.129 46.264 149.465 45.992C149.561 46.136 149.617 46.256 149.633 46.352C149.537 46.496 149.369 46.664 149.129 46.856C148.905 47.048 148.657 47.232 148.385 47.408C148.113 47.6 147.849 47.76 147.593 47.888C147.337 48.016 147.145 48.088 147.017 48.104C146.617 48.088 146.217 48 145.817 47.84C145.417 47.68 145.049 47.48 144.713 47.24C144.393 47 144.129 46.736 143.921 46.448C143.713 46.144 143.609 45.848 143.609 45.56C143.609 45.176 143.657 44.696 143.753 44.12C143.865 43.528 144.017 42.888 144.209 42.2C144.401 41.512 144.625 40.792 144.881 40.04C145.137 39.288 145.417 38.544 145.721 37.808H144.353Z" fill="black"/>
</svg>
